# xmcd
#
# Track frame offsets: 
#        182
#        14217
#        29005
#        44307
#        58132
#        73837
#        87062
#        102845
#        117052
#        132165
#        144697
#        159172
#        173917
#        187405
#        203592
#        218252
#        232712
#        246275
#        262302
#        275340
#        289687
#        302605
#
# Disc length: 4234 seconds
#
# Revision: 1
# Processed by: cddbd v1.5.2PL0 Copyright (c) Steve Scherf et al.
# Submitted via: ExactAudioCopy v1.3
#
DISCID=43108816
DTITLE=Bebe Daniels - Stop It's Wonderful
DYEAR=1995
DGENRE=Easy Listening
TTITLE0=Bebe Daniels, The Three Ginx, Jay Wilbur and Orch. - Deep Purple
TTITLE1=Bebe Daniels and Ben Lyons, Orchestral accompaniment - Stop It's
TTITLE1=Wonderful
TTITLE2=Bebe Daniels, The Rio Trio and Orch. - As Round And Round We Go
TTITLE3=Bebe Daniels and Ben Lyon, The Rio Trio and Orch. - Start The Day 
TTITLE3=Right
TTITLE4=Bebe Daniels, The Rio Trio and Orch. - Your Company's Requested
TTITLE5=Bebe Daniels, The Radio Three, Jay Wilbur and Orch. - It's A Sma
TTITLE5=ll World
TTITLE6=Bebe Daniels and Ben Lyons, The Radio Three and Orch. - Give A Lit
TTITLE6=tle Whistle
TTITLE7=Bebe Daniels, Jay Wilbur and Orch. - I'm Singing To A Million
TTITLE8=Bebe Daniels, Jay Wilbur and Orch. - There I Go
TTITLE9=Bebe Daniels, Sam Browne, with Orch. - Rio Rita
TTITLE10=Bebe Daniels and Ben Lyon, The Three Ginx, Jay Wilbur and Orch. /
TTITLE10=Little Swiss Whistling Song
TTITLE11=Bebe Daniels with Orch. - Imagination
TTITLE12=Bebe Daniels and Ben Lyons, Orchestral accompaniment - Nursie N
TTITLE12=ursie
TTITLE13=Bebe Daniels, The Rio Trio and Orch. - Somewhere In France With
TTITLE13=You
TTITLE14=Bebe Daniels, The Rio Trio and Orch. - A Mother's Prayer At Twi
TTITLE14=light
TTITLE15=Bebe Daniels with Orch. - Our Love
TTITLE16=Bebe Daniels and Ben Lyons, The Radio Three and Orch. - Three Lit
TTITLE16=tle Fishes
TTITLE17=Bebe Daniels, The Three Sirens, with Orch - With The Wind And
TTITLE17=Rain In Your Hair
TTITLE18=Bebe Daniels and Ben Lyon, The Three Ginx, Jay Wilbur and Orch. /
TTITLE18=Little Sir Echo
TTITLE19=Bebe Daniels, Jay Wilbur and Orch. - The Little Boy Who Never T
TTITLE19=old A Lie
TTITLE20=Bebe Daniels, The Rio Trio and Orch. - Ling' Ring On Your Doors
TTITLE20=tep
TTITLE21=Bebe Daniels, Jay Wilbur and Orch. - The Masquerade Is Over
EXTD=
EXTT0=
EXTT1=
EXTT2=
EXTT3=
EXTT4=
EXTT5=
EXTT6=
EXTT7=
EXTT8=
EXTT9=
EXTT10=
EXTT11=
EXTT12=
EXTT13=
EXTT14=
EXTT15=
EXTT16=
EXTT17=
EXTT18=
EXTT19=
EXTT20=
EXTT21=
PLAYORDER=
